<?xml version="1.0" encoding="utf-8"?>
<svg viewBox="29.5662 24.0096 435.2552 445.5309" width="435.2552" height="445.5309" xmlns="http://www.w3.org/2000/svg">
  <path style="fill: rgb(255, 255, 255);" d="M510.7,212.5c-19.8-16.3-38.2-31.4-51.2-46.8c9.1,1.2,18.2,1.9,27.2,1.9c6.2,0,11.9-0.4,17.1-1   c8.4,20.8,30.3,28.7,49.7,28.7c40.6,0,82.6-34,82.6-90.9c0-25.2-9.6-48.1-27.1-64.7c-20-19-49.8-29.1-86-29.1c-0.2,0-1.2,0-2.9,0   c-108.3,1.2-143.4,79.6-143.4,117.8c0,0.1,0,0.2,0,0.4c-2.8-0.9-5.6-1.8-8.4-2.7c-48.3-15.5-98.4-31.6-154.4-31.6   c-51.4,0-93.2,13.8-121,40c-23.9,22.5-37.1,53.9-37.1,88.3c0,58.5,40.2,121.7,105,121.7c43.4,0,62.8-27.9,63.5-29.1   c2.4-3.6,1.5-8.4-2.1-10.8c-3.5-2.4-8.4-1.5-10.8,2c-0.7,0.9-15.9,22.3-50.7,22.3c-43,0-89.4-40.6-89.4-106.1   c0-30.1,11.4-57.4,32.2-76.9c24.9-23.4,63-35.7,110.3-35.7c53.6,0,102.4,15.7,149.6,30.8c4.8,1.6,9.5,3,14.2,4.6   c6.6,56,45.2,95.3,82.5,133.4c38,38.8,73.9,75.4,73.9,126.9c0,34.4-8.4,60.5-21.8,79.8c2.1-13.5,3.4-27.6,3.4-41.9   c0-54.2-32-110.8-79.6-140.9c-39.1-24.8-82.1-28.3-120.9-9.9c-49.6,23.4-74.2,77.6-61.4,134.8C266.1,482.7,317,547,419.8,547v0.5   c0.3,0,1.1,0,2.3,0c7.5,0,31.3-0.5,60.1-6.6c-10.5,30.9-21.9,51.7-22.1,52.1c-2.1,3.8-0.7,8.5,3,10.6c1.2,0.7,2.5,1,3.7,1   c2.8,0,5.4-1.4,6.9-4c1-1.8,14.9-27.2,26.4-64c28.4-7.9,59.2-21.5,83-44.8c26.8-26.2,40.4-60.6,40.4-102.1   C623.7,305.3,563.7,256,510.7,212.5z M515.8,146.8c0-18.8,12.7-39.9,29.6-39.9c4.4,0,4.5,7.1,4.5,7.9c0,7.9-4.9,16.6-13,23.1   c-4.5,3.6-11.2,7.6-21,10.4C515.8,147.8,515.8,147.3,515.8,146.8z M522.3,26.2c0.1,0,0.2,0,0.3,0c32.3,0,58.5,8.6,75.6,24.8   c14.4,13.6,22.3,32.5,22.3,53.4c0,47.1-34,75.3-66.9,75.3c-19.7,0-29.3-7.8-33.7-16.2c12.5-3.5,21.1-8.7,26.9-13.3   c11.8-9.5,18.9-22.7,18.9-35.3c0-13.6-8.4-23.6-20.1-23.6c-12.6,0-24.4,6.5-33.1,18.4c-7.7,10.4-12.1,24-12.1,37.1   c0,1.6,0.1,3,0.2,4.5c-4.2,0.5-8.7,0.7-13.7,0.7c-13,0-26.2-1.5-39.7-4.1c-4.5-8.4-7.1-17-7.1-26.1c0-32.3,8.6-57.1,25.6-73.5   c20.1-19.5,46.7-21.8,54.4-22.1C521.4,26.2,522.2,26.2,522.3,26.2z M269,424.3c-11.4-50.7,9.3-96.7,52.8-117.3   c14.2-6.7,29.1-10,44.1-10c20.7,0,41.8,6.4,61.8,19c43.2,27.4,72.3,78.7,72.3,127.7c0,22.1-3.3,43.9-8,63.7   c-21.2,16.9-47.5,24-72,24C326.3,531.4,280.1,473.7,269,424.3z" transform="matrix(0.7500520348548889, 0, 0, 0.7500520348548889, -12.286720275878906, 16.059066772460938)"/>
</svg>